PathFileType	4	(X/Y/Z)	C:\Users\Biomechanik\SynologyDrive\AlexP\Athlete_03\Athlete_3_25_03_31\Deadlift_35kg_02\marker_experimental.trc
DataRate	CameraRate	NumFrames	NumMarkers	Units	OrigDataRate	OrigDataStartFrame	OrigNumFrames
200.000000	200.000000	4	55	mm	200.000000	247	1983
Frame#	Time	BL			BR			GLAB			RFHD			LFHD			C7			T6			SPINMOL			SPINM2			SPINM3			T12			BELTOL			BELT2			BELT3			SACROL			SACR2			SACR3			LTHOL			LTH2			LTH3			LSHAOL			LSHA2			LSHA3			LHEE			LTOE			LM5			RTHOL			RTH2			RTH3			RSHAOL			RSHA2			RSHA3			RHEE			RTOE			RM5			STRN			XIPH			LACR			LUAOL			LUA2			LUA3			LLAOL			LLA2			LLA3			LWRR			LWRU			RACR			RUAOL			RUA2			RUA3			RLAOL			RLA2			RLA3			RWRR			RWRU			
		X1	Y1	Z1	X2	Y2	Z2	X3	Y3	Z3	X4	Y4	Z4	X5	Y5	Z5	X6	Y6	Z6	X7	Y7	Z7	X8	Y8	Z8	X9	Y9	Z9	X10	Y10	Z10	X11	Y11	Z11	X12	Y12	Z12	X13	Y13	Z13	X14	Y14	Z14	X15	Y15	Z15	X16	Y16	Z16	X17	Y17	Z17	X18	Y18	Z18	X19	Y19	Z19	X20	Y20	Z20	X21	Y21	Z21	X22	Y22	Z22	X23	Y23	Z23	X24	Y24	Z24	X25	Y25	Z25	X26	Y26	Z26	X27	Y27	Z27	X28	Y28	Z28	X29	Y29	Z29	X30	Y30	Z30	X31	Y31	Z31	X32	Y32	Z32	X33	Y33	Z33	X34	Y34	Z34	X35	Y35	Z35	X36	Y36	Z36	X37	Y37	Z37	X38	Y38	Z38	X39	Y39	Z39	X40	Y40	Z40	X41	Y41	Z41	X42	Y42	Z42	X43	Y43	Z43	X44	Y44	Z44	X45	Y45	Z45	X46	Y46	Z46	X47	Y47	Z47	X48	Y48	Z48	X49	Y49	Z49	X50	Y50	Z50	X51	Y51	Z51	X52	Y52	Z52	X53	Y53	Z53	X54	Y54	Z54	X55	Y55	Z55	

248	1.235	2233.28271484375	220.9647521972658	366.2142944335941	211.7842864990234	223.2012329101562	385.1408386230469	1215.23095703125	1086.343872070312	665.9788208007815	1156.6748046875	1145.671264648438	672.3376464843752	1291.572021484375	1127.493530273438	672.4194946289065	1229.470703125	1220.196655273438	425.0172424316409	1225.256713867188	1179.174438476562	244.6370239257815	1245.585571289062	1161.543823242188	207.0032958984377	1195.791015625	1158.648559570312	201.1647644042971	1229.357177734375	1123.046752929688	155.5352630615237	1226.658081054688	1069.154296875	107.1549987792971	1241.013671875	1055.38134765625	63.93700027465843	1190.768188476562	1051.87841796875	62.82078933715842	1219.897583007812	1011.031860351563	19.51835060119651	1245.652954101562	917.8265991210939	-50.10760498046852	1194.4384765625	915.3639526367189	-47.34169006347634	1220.888305664062	861.4946289062501	-75.48712921142555	1424.368041992188	609.0518798828126	125.9496307373049	1395.247802734375	536.2546386718751	116.821342468262	1408.302856445312	558.6387939453126	157.9415435791018	1419.366088867188	310.5998535156251	211.7247772216799	1406.134521484375	254.710678100586	156.3487548828128	1410.32470703125	250.2156066894532	205.7688598632815	1308.16943359375	68.2047653198243	107.1452407836916	1309.076049804688	47.53305053710945	322.9100646972659	1411.246704101562	31.44120979309091	278.717712402344	1019.695861816406	609.3563842773439	112.7014007568361	1003.038024902344	597.5002441406251	190.1628875732424	1024.046020507812	565.9706420898439	157.0460205078127	1007.612731933594	332.6010131835938	205.5205383300783	1011.401184082031	257.7360534667969	229.403030395508	1019.864807128906	275.1727905273438	183.7857360839846	1123.222534179688	61.23397064208991	111.5846786499026	1104.191772460938	47.27328109741218	325.1776123046877	1007.235168457031	39.5826377868653	270.0252380371095	1224.409545898438	1024.982788085938	444.0865173339846	1224.72314453125	929.5312500000001	330.8802490234377	1389.697265625	1097.251953125	468.2022399902346	1484.246826171875	951.8665771484376	435.5101013183597	1511.487548828125	897.6748046875001	410.3242797851565	1470.620239257812	888.2533569335939	439.1476135253909	1526.419555664062	693.0734252929689	386.4217529296878	1531.402954101562	638.7066040039064	329.091491699219	1523.993286132812	632.2901611328126	377.9256591796878	1519.1923828125	527.5161743164064	374.4301452636722	1440.51953125	526.8041992187501	383.439880371094	1070.299438476562	1103.7841796875	470.2038879394533	971.1672363281248	974.7015380859376	427.2347106933595	968.0064697265624	909.7435913085939	427.1143798828127	935.984924316406	929.1883544921876	394.6181640625002	912.5058593749999	705.8685302734375	370.6639099121095	918.1520996093749	641.2413940429688	416.997528076172	914.2554931640624	643.0476684570312	367.3894042968752	919.9927368164061	556.35888671875	390.5305480957033	996.7807617187499	538.5761108398439	377.2316284179689	
249	1.24	2233.28125	220.9645843505861	366.2137145996098	211.7835235595703	223.2017364501953	385.1414794921876	1215.187255859375	1082.494140625	666.3977661132815	1156.741577148437	1141.856689453125	672.916687011719	1291.571044921875	1123.510986328125	672.9006347656252	1229.472900390625	1217.1875	425.989929199219	1225.138671875	1177.071533203125	245.4206390380862	1245.462890625	1159.628295898438	207.6646728515627	1195.665649414062	1156.7431640625	201.8243255615237	1229.254760742188	1121.414306640625	155.9837646484377	1226.53564453125	1067.725830078125	107.3138198852541	1240.856079101562	1054.084838867188	63.96165466308616	1190.604248046875	1050.551879882812	62.87564086914085	1219.780517578125	1009.867858886719	19.3892345428469	1245.515258789062	916.6368408203126	-50.67303466796852	1194.306762695312	914.1511840820314	-47.87796401977517	1220.756225585938	860.3270263671876	-76.10253143310524	1424.4453125	608.1628417968751	125.8872375488284	1395.327270507812	535.3280639648439	117.0980224609378	1408.7666015625	557.9781494140626	158.2058105468753	1419.506591796875	310.4322814941407	212.189147949219	1406.238037109375	254.6532745361329	156.7127227783206	1410.444091796875	250.067855834961	206.1259002685549	1308.153076171875	68.1852569580079	107.1656188964846	1309.080078125	47.53466033935555	322.9073791503909	1411.257446289062	31.42912673950204	278.7154846191409	1019.651977539062	608.3043823242189	112.7619857788088	1002.973937988281	596.8114624023439	190.2713775634767	1023.970520019531	565.1011352539064	157.2893066406252	1007.568115234375	332.4688415527344	206.1194763183596	1011.378295898438	257.5611572265626	229.8646087646486	1019.826782226562	275.0852050781251	184.2748260498049	1123.243530273438	61.24659347534187	111.6010818481447	1104.207641601562	47.26676177978523	325.1813659667971	1007.241577148438	39.58826065063483	270.0304260253908	1224.372192382812	1021.855712890625	444.1806640625002	1224.693725585938	926.9649658203126	330.4414367675784	1389.582153320312	1093.937622070312	468.7790832519534	1484.11376953125	948.6859741210939	436.0954895019534	1511.396362304688	894.4769897460939	410.9536437988284	1470.492797851562	885.0578002929689	439.7175598144534	1526.440063476562	689.9363403320314	387.0178527832034	1531.629638671875	635.6496582031251	329.6425476074222	1524.062866210938	629.1206054687501	378.4405517578128	1519.473876953125	524.3872680664064	374.8655090332034	1440.780517578125	523.5311279296876	383.5907287597659	1070.396484375	1100.53857421875	470.970916748047	971.315246582031	971.5366210937501	428.0717773437502	968.1484985351561	906.6214599609376	427.9339294433595	936.0618286132811	926.0274047851564	395.5345764160158	912.6496582031249	702.7434692382812	371.3597717285158	918.4428100585936	638.0195922851562	417.5428771972658	914.3586425781249	639.92626953125	367.9733276367189	920.0941162109374	553.2359619140625	390.9792480468752	996.7686157226561	535.4053955078126	377.2442321777345	
250	1.245	2233.279541015625	220.9642181396486	366.213043212891	211.7828521728515	223.2019195556641	385.1420593261719	1215.147583007812	1078.6591796875	666.8027954101565	1156.806884765625	1138.058959960938	673.4817504882815	1291.56982421875	1119.553955078125	673.3648681640627	1229.467163085938	1214.189575195312	426.9462890625002	1225.016357421875	1174.968627929688	246.1924438476565	1245.3359375	1157.712890625	208.3183746337893	1195.535766601562	1154.837646484375	202.4740142822268	1229.145629882812	1119.778930664062	156.4318084716799	1226.409790039062	1066.294555664062	107.4736328125002	1240.698120117188	1052.781494140625	63.98602294921898	1190.437133789062	1049.22265625	62.9330635070803	1219.658813476562	1008.696105957031	19.26065254211448	1245.368408203125	915.4384765625001	-51.22637176513649	1194.166259765625	912.9304199218751	-48.40589523315408	1220.614868164062	859.1513671875001	-76.70558166503884	1424.528076171875	607.2816772460939	125.839912414551	1395.419677734375	534.4038696289064	117.3858489990237	1409.245849609375	557.3118896484376	158.4923400878909	1419.648071289062	310.262420654297	212.6528625488284	1406.339111328125	254.5962524414063	157.0744934082034	1410.562133789062	249.9195404052735	206.4801330566409	1308.137817382812	68.16638183593759	107.1845932006838	1309.084350585938	47.53651046752938	322.9043273925784	1411.26904296875	31.41658401489266	278.7128601074222	1019.605346679688	607.2553710937501	112.8346862792971	1002.914367675781	596.1221313476564	190.3916473388674	1023.895385742188	564.2337036132814	157.5428619384768	1007.524230957031	332.3345947265626	206.7188873291018	1011.358215332031	257.3847656250001	230.3285064697268	1019.788024902344	274.9951782226563	184.7655334472658	1123.264770507812	61.25912857055671	111.6175384521487	1104.22607421875	47.26129531860359	325.1841430664065	1007.248168945312	39.59444427490241	270.034637451172	1224.333862304688	1018.746032714844	444.269226074219	1224.664184570312	924.4117431640626	330.0060729980471	1389.465576171875	1090.6435546875	469.337585449219	1483.980590820312	945.5267333984376	436.6644592285159	1511.303833007812	891.2963256835939	411.5690917968753	1470.365356445312	881.8829956054689	440.2729187011722	1526.454956054688	686.8156127929689	387.6096191406253	1531.857299804688	632.6065063476564	330.1911621093753	1524.134155273438	625.9730224609376	378.9519653320315	1519.751708984375	521.2764892578126	375.3008728027347	1441.037719726562	520.2777709960939	383.7306213378909	1070.488647460938	1097.3017578125	471.7265014648439	971.4581298828123	968.3746948242189	428.8991088867189	968.2979736328124	903.4959106445314	428.7372131347658	936.1348266601561	922.8671875000001	396.4435424804689	912.7908935546874	699.6177368164062	372.0488891601564	918.7319946289061	634.794677734375	418.076385498047	914.4622192382811	636.8055419921875	368.5512695312502	920.2036743164061	550.1158447265625	391.424774169922	996.7684936523436	532.2329101562501	377.2617492675783	
251	1.25	2233.27783203125	220.9636383056642	366.2123413085941	211.7824401855468	223.2016754150391	385.1425170898438	1215.111938476562	1074.839965820312	667.1932373046877	1156.870361328125	1134.279174804688	674.0327758789065	1291.570068359375	1115.623291015625	673.8123779296877	1229.45361328125	1211.20458984375	427.8862609863284	1224.889892578125	1172.867553710938	246.9520416259768	1245.205078125	1155.799194335938	208.9636230468752	1195.402099609375	1152.933715820312	203.1131286621096	1229.030029296875	1118.1416015625	156.8787384033205	1226.280639648438	1064.86083984375	107.6345520019534	1240.540405273438	1051.472045898438	64.01035308837913	1190.267333984375	1047.8916015625	62.99263000488303	1219.531127929688	1007.516906738281	19.13379859924339	1245.213134765625	914.2320556640626	-51.76656723022438	1194.01708984375	911.7025146484376	-48.92474365234353	1220.46484375	857.9683227539064	-77.29579162597634	1424.616455078125	606.4079589843751	125.808647155762	1395.526489257812	533.4819335937501	117.6851501464846	1409.72607421875	556.6343383789064	158.7980499267581	1419.791625976562	310.090301513672	213.116882324219	1406.439819335938	254.5391998291016	157.435241699219	1410.6796875	249.7705993652345	206.8325805664065	1308.123779296875	68.14907836914071	107.2020645141604	1309.088989257812	47.53855514526375	322.901062011719	1411.281616210938	31.40391540527352	278.7096862792972	1019.553955078125	606.2136230468751	112.9208145141603	1002.857727050781	595.4357299804689	190.5251312255861	1023.819702148438	563.3721313476564	157.8076477050783	1007.480529785156	332.1983947753907	207.3176727294924	1011.34130859375	257.2070617675782	230.7937164306643	1019.74853515625	274.9026794433594	185.2568206787111	1123.286254882812	61.27147293090827	111.6340713500979	1104.246948242188	47.25698471069343	325.1857910156252	1007.254943847656	39.60115432739264	270.0373840332033	1224.295166015625	1015.654968261719	444.3526306152346	1224.634521484375	921.8727416992189	329.5745239257815	1389.348022460938	1087.371215820312	469.8779907226565	1483.847045898438	942.3893432617189	437.217224121094	1511.2099609375	888.1348876953126	412.170593261719	1470.238159179688	878.7303466796876	440.8136291503909	1526.464111328125	683.7125244140626	388.1972351074222	1532.08642578125	629.5783081054689	330.7378540039065	1524.206787109375	622.8486938476564	379.4601135253909	1520.025512695312	518.1848754882814	375.7358093261722	1441.291015625	517.0451660156251	383.858093261719	1070.576171875	1094.074829101562	472.469940185547	971.5963745117185	965.2166748046876	429.7161254882814	968.4542846679686	900.3687133789064	429.5241088867189	936.2029418945311	919.7092285156251	397.3445129394533	912.9294433593749	696.4922485351562	372.7313537597658	919.0195922851561	631.5687866210938	418.5985107421877	914.5661621093749	633.686279296875	369.1231079101564	920.3220825195311	546.9987182617188	391.8663330078127	996.7809448242186	529.0600585937501	377.2835388183595	
